<svg width="152" height="76" viewBox="0 0 152 76" fill="none" xmlns="http://www.w3.org/2000/svg">
<path fill-rule="evenodd" clip-rule="evenodd" d="M92.454 47.9858H90.149C89.4398 47.9858 88.8636 47.4096 88.8636 46.7004V43.8723L85.2909 44.7411L86.2483 48.5C87.2589 62.2588 69.1295 63.7659 68.4469 48.8635L57.2146 51.6117V51.6028L49.8831 53.1986L54.7678 72.6932L64.9451 70.2376C66.3458 72.9503 67.3742 74.8298 67.3742 74.8298H98.7838L92.454 47.9858Z" fill="#83583A"/>
<path fill-rule="evenodd" clip-rule="evenodd" d="M12.9892 17.9327C15.7313 17.9669 18.2062 18.3224 20.4361 18.9716C20.5771 19.0127 20.6581 19.1603 20.6171 19.3013C20.576 19.4423 20.4284 19.5234 20.2874 19.4823C18.1799 18.8688 15.8445 18.5226 13.2603 18.4691L13.1939 18.4678L13.1805 18.5284C13.1328 18.7459 13.0849 18.9996 13.0402 19.2866C12.6854 21.5624 12.7387 24.2007 13.482 26.9592C13.5202 27.101 13.4362 27.247 13.2944 27.2852C13.1526 27.3234 13.0066 27.2394 12.9684 27.0976C12.213 24.2939 12.1505 21.6128 12.5019 19.2876L12.5146 19.2047C12.561 18.9067 12.6109 18.6424 12.6609 18.4144L12.6757 18.348C12.683 18.3161 12.69 18.286 12.6967 18.2579L12.7254 18.1428C12.727 18.1369 12.7283 18.132 12.7294 18.128C12.7615 18.0114 12.8682 17.9311 12.9892 17.9327Z" fill="#D80000"/>
<path fill-rule="evenodd" clip-rule="evenodd" d="M20.0822 19.1536C20.108 19.009 20.2462 18.9127 20.3908 18.9385C20.5354 18.9644 20.6316 19.1025 20.6058 19.2471C20.0957 22.102 20.1372 24.8792 20.6584 27.5989C20.686 27.7431 20.5915 27.8825 20.4472 27.9101C20.303 27.9378 20.1636 27.8432 20.136 27.699C19.6028 24.9168 19.5604 22.0741 20.0822 19.1536Z" fill="#D80000"/>
<path fill-rule="evenodd" clip-rule="evenodd" d="M28.5933 3.02231C28.6745 2.93059 28.8078 2.90618 28.9162 2.96319L28.9595 2.98648C28.9936 3.00503 29.0336 3.0272 29.0793 3.05301L29.1596 3.09873C29.2561 3.15413 29.3624 3.21674 29.4779 3.2866L29.528 3.31698C30.0087 3.60963 30.5438 3.96261 31.1195 4.37671C32.7629 5.55868 34.4058 6.99438 35.9394 8.69041C36.8932 9.7452 37.7751 10.8705 38.5707 12.0673C38.652 12.1896 38.6187 12.3547 38.4964 12.436C38.3741 12.5173 38.209 12.4841 38.1277 12.3618C37.3471 11.1875 36.4814 10.0829 35.5448 9.04716C34.038 7.38071 32.4232 5.96957 30.8089 4.80854C30.2714 4.42192 29.7708 4.09013 29.3188 3.81256L29.2514 3.77133C29.1368 3.70155 29.0313 3.63896 28.9355 3.58353L28.8506 3.53485L28.8496 3.53592C24.2323 8.79639 21.5791 13.9938 20.6341 19.0911L20.6057 19.2471C20.5799 19.3917 20.4417 19.488 20.2971 19.4622C20.1525 19.4363 20.0562 19.2982 20.0821 19.1536C21.0288 13.8541 23.7784 8.46199 28.5933 3.02231Z" fill="#D80000"/>
<path fill-rule="evenodd" clip-rule="evenodd" d="M52.4506 23.521C55.559 22.2146 59.1706 22.0895 63.3115 23.352C63.432 23.3887 63.5102 23.5051 63.4988 23.6306L63.4934 23.6842L63.4805 23.8006L63.4654 23.9254C63.4478 24.0661 63.4262 24.2238 63.4001 24.3971C63.3092 25.0011 63.1837 25.6735 63.0177 26.3974C62.5437 28.4657 61.8413 30.5344 60.8649 32.4674C60.7987 32.5985 60.6387 32.6511 60.5076 32.5849C60.3765 32.5187 60.3239 32.3587 60.3901 32.2276C61.3453 30.3364 62.0342 28.3077 62.4993 26.2786C62.6621 25.5683 62.7852 24.9091 62.8741 24.318L62.8919 24.197C62.9062 24.0986 62.9188 24.0061 62.9299 23.9198L62.9451 23.7975L62.9155 23.7888C59.0324 22.6507 55.6573 22.7767 52.7466 23.974L52.6567 24.0114C50.2007 25.0436 48.1566 26.8059 46.4897 29.0953C45.5147 30.4343 44.7291 31.8704 44.1169 33.3065C43.9027 33.8088 43.7256 34.275 43.5835 34.6928L43.5517 34.7874C43.521 34.8796 43.4938 34.9642 43.47 35.0409L43.4392 35.1423L43.4194 35.2107C43.3804 35.3523 43.234 35.4355 43.0924 35.3965C42.9508 35.3575 42.8676 35.211 42.9066 35.0694L42.9292 34.9912C42.9354 34.9704 42.9422 34.9476 42.9498 34.923L42.9746 34.8429C43.0049 34.7463 43.04 34.639 43.0799 34.5215C43.2262 34.0915 43.408 33.6129 43.6276 33.0979C44.2546 31.627 45.0592 30.1562 46.0596 28.7822C47.7799 26.4195 49.8971 24.5942 52.4506 23.521Z" fill="#D80000"/>
<path fill-rule="evenodd" clip-rule="evenodd" d="M47.9817 4.07887C48.0831 4.01787 48.2126 4.03116 48.2994 4.11149L48.3284 4.13875L48.3859 4.19434C48.4454 4.25249 48.513 4.3203 48.5881 4.39769L48.6207 4.43144C48.8716 4.69178 49.1506 5.00069 49.4508 5.35727C50.3065 6.37397 51.1616 7.57005 51.9595 8.9382C52.8109 10.398 53.5466 11.9708 54.1324 13.6519C54.1808 13.7906 54.1075 13.9422 53.9688 13.9905C53.8301 14.0389 53.6785 13.9656 53.6302 13.8269C53.056 12.1791 52.3347 10.6373 51.5001 9.20616C50.7182 7.86546 49.8807 6.69405 49.0438 5.6998L48.9352 5.57179C48.7021 5.29924 48.4837 5.05792 48.2835 4.84835L48.2377 4.80055C48.206 4.76766 48.1757 4.73651 48.1467 4.70711L48.0807 4.64061L47.9806 4.70152C43.547 7.40633 40.0522 10.4324 37.419 13.7314L37.3378 13.8335C34.9542 16.8453 33.318 20.0413 32.3458 23.3707C32.3046 23.5117 32.1569 23.5926 32.0159 23.5514C31.8749 23.5102 31.794 23.3626 31.8352 23.2216C33.9639 15.9322 39.128 9.40723 47.9817 4.07887Z" fill="#D80000"/>
<path fill-rule="evenodd" clip-rule="evenodd" d="M43.1904 15.2894C46.374 19.1265 48.2067 22.783 48.85 26.2529C48.8768 26.3974 48.7814 26.5361 48.637 26.5629C48.4926 26.5897 48.3538 26.4943 48.327 26.3499C47.7138 23.042 45.9807 19.5426 42.9671 15.855L42.9119 15.7877L42.8119 15.8358C42.7397 15.8708 42.6622 15.9088 42.5798 15.9497L42.4785 16.0003L42.3205 16.0801C41.8675 16.3105 41.3701 16.5767 40.8386 16.8773C39.1412 17.8374 37.4439 18.9495 35.8609 20.1993C32.6475 22.7361 30.3275 25.5036 29.2807 28.4455C27.99 32.0727 28.7034 35.7943 31.8174 39.5993C31.9104 39.713 31.8937 39.8805 31.78 39.9736C31.6664 40.0666 31.4988 40.0499 31.4058 39.9362C28.1759 35.9896 27.4251 32.0733 28.7795 28.2672C29.8656 25.2152 32.2464 22.3751 35.5313 19.7818C37.1375 18.5137 38.8571 17.387 40.5767 16.4143L40.7654 16.3082C41.2958 16.0118 41.7907 15.7503 42.24 15.5249L42.3433 15.4733C42.4442 15.4232 42.5379 15.3773 42.624 15.3358L42.7354 15.2826L42.8758 15.217C42.985 15.1675 43.1138 15.1971 43.1904 15.2894Z" fill="#D80000"/>
<path fill-rule="evenodd" clip-rule="evenodd" d="M13.2107 26.923C19.1823 26.3973 24.5371 28.1454 29.2472 31.5751C31.0575 32.8933 32.6992 34.4109 34.1706 36.0552C35.2754 37.2898 36.2042 38.5043 36.9568 39.6287C37.0385 39.7507 37.0058 39.9159 36.8837 39.9976C36.7616 40.0793 36.5964 40.0466 36.5147 39.9245C35.7754 38.8199 34.8615 37.6249 33.7742 36.4099C32.3267 34.7923 30.7123 33.3 28.934 32.0051C24.322 28.6468 19.0915 26.9393 13.2573 27.4529C13.111 27.4658 12.9819 27.3576 12.9691 27.2113C12.9562 27.065 13.0643 26.9359 13.2107 26.923Z" fill="#D80000"/>
<path fill-rule="evenodd" clip-rule="evenodd" d="M13.2112 26.923C13.3575 26.9103 13.4864 27.0187 13.499 27.1651C13.5116 27.3114 13.4032 27.4403 13.2569 27.4529C11.6382 27.5926 9.95839 27.9158 8.21999 28.4259L8.09839 28.4619L8.14906 28.5668C8.1706 28.6109 8.19317 28.6567 8.2168 28.7042L8.29083 28.8512C8.56113 29.3827 8.89017 29.9757 9.27935 30.6147C10.3921 32.4416 11.7624 34.269 13.4009 35.9739C14.9855 37.6228 16.7419 39.07 18.6748 40.2593C18.7999 40.3363 18.8389 40.5001 18.762 40.6252C18.685 40.7503 18.5212 40.7893 18.3961 40.7123C16.423 39.4983 14.632 38.0226 13.0174 36.3425C11.3502 34.6078 9.95697 32.7497 8.82507 30.8914C8.42862 30.2404 8.093 29.6356 7.81669 29.0923L7.76521 28.9904C7.7068 28.874 7.65415 28.7662 7.60722 28.6677L7.56839 28.5855C7.55389 28.5545 7.54064 28.5259 7.52862 28.4997L7.48685 28.4068L7.48466 28.4018C7.42172 28.2565 7.49893 28.0887 7.65025 28.042C9.57122 27.4489 11.426 27.077 13.2112 26.923Z" fill="#D80000"/>
<path fill-rule="evenodd" clip-rule="evenodd" d="M57.0551 39.4929C57.9015 39.4929 58.5907 40.1725 58.6063 41.0152L58.6065 41.0443V45.7341C58.6065 46.5804 57.9269 47.2696 57.0842 47.2852L57.0551 47.2855L54.9801 47.2854L53.6531 53.1157C53.6216 53.2539 53.488 53.3422 53.3501 53.3191L53.3347 53.316C53.1966 53.2846 53.1083 53.151 53.1314 53.013L53.1344 52.9977L54.5085 46.9605C54.5349 46.8447 54.6345 46.7611 54.7518 46.754L54.7679 46.7536H57.0551C57.6088 46.7536 58.0605 46.3103 58.0743 45.7599L58.0746 45.7341V41.0443C58.0746 40.4907 57.6314 40.0389 57.081 40.0252L57.0551 40.0248H52.3299C52.183 40.0248 52.064 39.9058 52.064 39.7589C52.064 39.6173 52.1747 39.5015 52.3143 39.4934L52.3299 39.4929H57.0551Z" fill="#83583A"/>
<path fill-rule="evenodd" clip-rule="evenodd" d="M40.0693 39.5018C40.2162 39.5018 40.3353 39.6208 40.3353 39.7677C40.3353 39.9094 40.2246 40.0251 40.085 40.0332L40.0693 40.0337H19.6615C19.1078 40.0337 18.6561 40.4769 18.6423 41.0273L18.642 41.0532V45.7429C18.642 46.2966 19.0852 46.7483 19.6356 46.7621L19.6615 46.7624H21.7981C21.9168 46.7624 22.0204 46.841 22.0533 46.9537L22.0574 46.9693L28.4315 74.9658C28.4641 75.109 28.3744 75.2515 28.2312 75.2841C28.0931 75.3156 27.9556 75.2333 27.9168 75.099L27.9129 75.0838L21.5858 47.2943H19.6615C18.8152 47.2943 18.1259 46.6147 18.1104 45.772L18.1101 45.7429V41.0532C18.1101 40.2068 18.7897 39.5176 19.6324 39.502L19.6615 39.5018H40.0693Z" fill="#83583A"/>
<path fill-rule="evenodd" clip-rule="evenodd" d="M57.3215 51.6249L57.338 51.6345L80.5828 66.1824C80.7869 66.3102 80.7297 66.6218 80.4934 66.6687L79.6506 66.8387C79.348 66.9002 79.0148 66.9684 78.653 67.0431L77.6682 67.2474C76.4683 67.4978 75.1717 67.7733 73.7985 68.0712C68.8962 69.1344 63.994 70.2684 59.4038 71.4285L59.0685 71.5134C54.5074 72.6714 50.5073 73.7938 47.226 74.858L46.896 74.9656C46.6232 75.0551 46.3559 75.1441 46.0941 75.2325C45.9549 75.2795 45.804 75.2048 45.757 75.0657C45.71 74.9265 45.7847 74.7756 45.9238 74.7286L46.2424 74.6216C46.5101 74.5322 46.7833 74.4424 47.0619 74.352L47.3012 74.2747C50.5493 73.2296 54.4764 72.1305 58.9377 70.9979C63.519 69.8348 68.419 68.6972 73.3266 67.6293L74.0142 67.4802C75.4309 67.1739 76.763 66.8919 77.9879 66.6376L79.3116 66.3649L79.7342 66.2788L57.1491 52.1438L56.825 52.2195C56.6854 52.2524 56.5325 52.2886 56.3671 52.3282L56.0583 52.4024C55.4308 52.5539 54.7446 52.7237 54.0123 52.91C51.5712 53.531 49.1159 54.2073 46.805 54.9156C46.6645 54.9587 46.5158 54.8797 46.4728 54.7393C46.4297 54.5989 46.5087 54.4501 46.6491 54.4071C48.8763 53.7244 51.2356 53.0718 53.5872 52.4695L53.8811 52.3945C54.6565 52.1973 55.3803 52.0184 56.0379 51.8602L56.5956 51.7271L57.1379 51.6006C57.2002 51.5864 57.2653 51.5952 57.3215 51.6249Z" fill="#83583A"/>
<path fill-rule="evenodd" clip-rule="evenodd" d="M48.1511 31.1109C49.6481 30.6183 51.1607 30.6727 52.6866 31.3329L53.8158 31.8317C57.3434 33.3936 59.15 34.277 60.3793 35.1316L60.4164 35.1575C61.2265 35.7256 61.6658 36.2252 61.6939 36.7171C61.7266 37.2876 61.2292 37.6964 60.2557 37.9811L60.213 37.9934C58.9356 38.3572 56.9702 39.4591 54.5185 41.1205C53.98 41.4855 53.4235 41.8738 52.8522 42.2824C51.4899 43.2569 50.1057 44.3013 48.7721 45.3458L48.5287 45.5368C48.236 45.7672 47.9605 45.986 47.7047 46.1909L47.414 46.4246L47.1269 46.6572L47.1291 47.0106L47.1307 47.3931C47.1379 49.3858 47.1244 51.6282 47.0761 53.7796L47.0647 54.2574C47.0003 56.8175 46.8909 58.8205 46.7274 60.0714L46.7159 60.1574C46.407 62.4781 45.7918 64.98 45.0802 66.9588C45.0305 67.097 44.8781 67.1688 44.7399 67.1191C44.6017 67.0694 44.53 66.917 44.5797 66.7788C45.2661 64.8699 45.8631 62.458 46.1722 60.2089L46.1999 60.0029C46.366 58.7323 46.4765 56.6461 46.5395 53.975L46.5488 53.5596C46.5933 51.4774 46.6057 49.3193 46.5988 47.3949L46.5941 46.5343C46.5934 46.4539 46.6291 46.3776 46.6912 46.3265L46.9982 46.0767L47.1664 45.941C47.5241 45.653 47.9251 45.3341 48.3618 44.9915L48.4441 44.927C49.7833 43.8781 51.1735 42.8292 52.5427 41.8498C53.1175 41.4387 53.6777 41.0478 54.2202 40.6802L54.4435 40.5294C56.7873 38.9546 58.6796 37.8986 59.9856 37.5058L60.1447 37.4593C60.8774 37.24 61.1768 36.9905 61.1629 36.7475C61.1472 36.4733 60.7949 36.0726 60.111 35.593L60.0388 35.5428C58.8971 34.7565 57.2019 33.9197 54.0154 32.5022L52.5324 31.846C51.1077 31.2146 49.7106 31.1577 48.3171 31.6162C46.5909 32.1829 45.443 32.9535 44.1806 34.4243L44.1338 34.4791C43.0086 35.8025 41.9708 37.3732 39.3147 41.6884L39.0636 42.0967L39.0571 42.1069C34.2859 49.135 31.0899 57.0604 30.0729 63.7693C29.1203 70.0537 30.2579 74.281 33.0219 74.7538C33.1667 74.7786 33.264 74.916 33.2392 75.0608C33.2145 75.2056 33.077 75.3029 32.9323 75.2781C29.7687 74.737 28.5557 70.2294 29.547 63.6895C30.5659 56.9682 33.7379 49.0604 38.473 42.0211L38.6146 41.8115L39.0198 41.1529C41.5494 37.0478 42.58 35.4927 43.6931 34.1764L43.7286 34.1345C45.0724 32.5539 46.3099 31.7153 48.1511 31.1109Z" fill="#83583A"/>
<path fill-rule="evenodd" clip-rule="evenodd" d="M64.4861 28.2607L64.5017 28.2612C64.6483 28.2709 64.7593 28.3976 64.7496 28.5441C64.5101 32.1761 64.9446 37.0692 65.7209 41.235C65.7478 41.3794 65.6525 41.5183 65.5081 41.5452C65.3637 41.5721 65.2249 41.4768 65.198 41.3324C64.4142 37.1266 63.976 32.1917 64.2189 28.5091C64.2282 28.3678 64.3463 28.2595 64.4861 28.2607Z" fill="#83583A"/>
<path fill-rule="evenodd" clip-rule="evenodd" d="M86.1697 33.1219C86.1827 32.9756 86.3118 32.8675 86.4581 32.8805C87.2813 32.9535 88.0677 33.1878 88.6873 33.6517C89.5514 34.2987 89.9593 35.3081 89.7745 36.7003C89.607 37.9478 88.9814 38.7267 88.0095 39.071C87.2748 39.3312 86.396 39.328 85.4607 39.1421C85.3167 39.1135 85.2231 38.9735 85.2517 38.8294C85.2804 38.6853 85.4204 38.5917 85.5644 38.6204C86.4142 38.7893 87.2034 38.7922 87.8319 38.5696C88.6147 38.2923 89.1062 37.6804 89.2472 36.6299C89.407 35.4262 89.0761 34.6073 88.3685 34.0775C87.8417 33.683 87.1446 33.4754 86.4111 33.4103C86.2648 33.3974 86.1567 33.2682 86.1697 33.1219Z" fill="#83583A"/>
<path fill-rule="evenodd" clip-rule="evenodd" d="M84.7376 42.5774C84.8748 42.5425 85.0144 42.6212 85.0566 42.7545L85.0609 42.7695L86.506 48.4433C86.5098 48.4584 86.5123 48.4739 86.5135 48.4894C86.7514 51.7284 85.9558 54.4724 84.3178 56.4858C82.8165 58.3312 80.6741 59.4587 78.361 59.6769C76.0412 59.8956 73.7295 59.1833 71.9158 57.6336C69.9318 55.9384 68.6416 53.3473 68.2712 50.0457C68.2548 49.8997 68.3599 49.7681 68.5059 49.7517C68.6518 49.7353 68.7834 49.8404 68.7998 49.9864C69.1557 53.1584 70.3839 55.625 72.2613 57.2292C73.9644 58.6844 76.1331 59.3527 78.3111 59.1473C80.4834 58.9424 82.4946 57.8839 83.9051 56.1501C85.4391 54.2645 86.1961 51.6882 85.9896 48.6215L85.9846 48.5516L84.5455 42.9008C84.5105 42.7635 84.5892 42.624 84.7225 42.5817L84.7376 42.5774Z" fill="#83583A"/>
<path fill-rule="evenodd" clip-rule="evenodd" d="M82.2713 33.492C82.1319 33.4809 82.0077 33.5796 81.9871 33.718L81.8087 34.9049L81.722 35.4766C81.6255 36.1106 81.5291 36.738 81.4358 37.3373L81.3172 38.0947C81.2 38.8376 81.0973 39.4725 81.0121 39.9775L80.9474 40.3546L80.828 40.3269C80.7623 40.3119 80.6928 40.2963 80.6195 40.2804L80.5638 40.2683C80.0279 40.1527 79.4082 40.0373 78.7121 39.9296C76.0727 39.5214 73.1148 39.3348 69.9585 39.4933L69.7431 39.5126L69.5146 39.5346C69.3795 39.548 69.2356 39.5629 69.0845 39.5792C68.4907 39.6433 67.8968 39.7174 67.3354 39.8012L67.1832 39.8242C66.2034 39.9752 65.4308 40.1411 64.9328 40.325C64.8181 40.3674 64.7471 40.4826 64.7607 40.6042L64.7744 40.7149L64.7882 40.8191C64.798 40.8904 64.8091 40.968 64.8217 41.0517L64.8294 41.1027C64.8893 41.4953 64.9667 41.9325 65.0637 42.4031C65.3408 43.7481 65.7189 45.0935 66.2138 46.3516C66.8677 48.0135 67.6774 49.3961 68.6646 50.4058C70.1672 51.9427 72.4167 52.5608 74.9547 52.3209C77.1785 52.1106 79.4402 51.2373 80.8925 50.0632C83.4132 48.0254 84.0301 47.0743 84.6274 44.5858L84.6588 44.4533C84.8268 43.7288 85.0697 42.4024 85.3697 40.6088L85.4727 39.988L85.5408 39.5728C85.7246 38.4473 85.9145 37.2464 86.1009 36.041L86.2487 35.0798L86.3962 34.1068C86.419 33.9544 86.3079 33.8146 86.1543 33.8023L82.2713 33.492ZM82.4766 34.042L85.8277 34.3098L85.625 35.6384L85.5054 36.4108C85.3769 37.2371 85.2473 38.057 85.1198 38.8474L84.9705 39.7646L84.8575 40.4469C84.5458 42.3142 84.295 43.6826 84.128 44.3873L84.0827 44.5762C83.8037 45.7227 83.5793 46.34 83.181 46.9757L83.1595 47.0098C82.6677 47.7834 81.8991 48.5655 80.5582 49.6496C79.1901 50.7556 77.0276 51.5906 74.9047 51.7913C72.5139 52.0174 70.4222 51.4426 69.045 50.0339C68.1142 49.0818 67.3388 47.758 66.7089 46.1568C66.2262 44.93 65.8561 43.613 65.5847 42.2957C65.4897 41.8345 65.4138 41.4064 65.3553 41.0225L65.3338 40.8782L65.3167 40.7565L65.3505 40.7461C65.8093 40.6063 66.4648 40.4731 67.2643 40.35C67.8113 40.2657 68.3948 40.1907 68.9816 40.1255L69.1416 40.108C69.316 40.0892 69.4807 40.0723 69.6332 40.0575L69.8813 40.034L69.9899 40.0242L69.9852 40.0245C73.1032 39.868 76.0255 40.0523 78.6309 40.4553C79.2838 40.5563 79.8677 40.664 80.3761 40.772L80.4517 40.7882C80.6169 40.8238 80.7629 40.8571 80.889 40.8874L81.0306 40.9222L81.0908 40.9377C81.2411 40.9781 81.3938 40.8814 81.4215 40.7282L81.4667 40.4739C81.5552 39.9676 81.6689 39.2743 81.803 38.4286L81.9336 37.5983L82.0179 37.056C82.0841 36.6288 82.1514 36.1899 82.219 35.7468L82.4427 34.2678L82.4766 34.042Z" fill="#83583A"/>
<path fill-rule="evenodd" clip-rule="evenodd" d="M85.9292 35.2376C85.9292 35.2376 87.7821 31.4078 88.3228 28.2518C88.837 25.2908 87.2767 22.3121 84.493 21.1862C82.1615 20.2376 81.3991 20.5479 81.3991 20.5479C81.3991 20.5479 82.7821 18.0834 79.1828 14.4575C77.915 13.1809 76.1597 12.4717 74.3601 12.516C69.954 12.6312 68.5799 16.3546 68.5799 16.3546C68.5799 16.3546 63.8814 7.67556 54.2005 12.7819C53.2253 13.2961 52.1172 14.7323 51.5941 15.7075C48.3849 21.5851 58.8902 28.5887 64.3689 29.1561C70.3884 29.7766 74.165 29.0319 76.0001 27.4362C74.626 28.3936 77.0906 37.1968 85.9292 35.2376Z" fill="#83583A"/>
<path fill-rule="evenodd" clip-rule="evenodd" d="M69.6525 36.9225C69.8422 36.9319 69.9897 37.0887 69.9895 37.2766L69.9891 37.2943L69.7309 42.481L71.2099 42.0014C71.3904 41.9428 71.5837 42.0368 71.6506 42.2121L71.6567 42.2293C71.7152 42.4098 71.6212 42.6031 71.446 42.6699L71.4287 42.676L69.4606 43.3143C69.2297 43.3892 68.9954 43.2154 68.9966 42.9758L68.997 42.9594L69.2807 37.259C69.2902 37.0693 69.447 36.9219 69.6348 36.922L69.6525 36.9225Z" fill="#83583A"/>
<path fill-rule="evenodd" clip-rule="evenodd" d="M72.9909 32.2758C73.8876 32.0819 74.6757 32.2721 75.3289 32.7059C75.4946 32.8159 75.6388 32.934 75.7616 33.0528L75.7978 33.0885C75.8551 33.1459 75.8969 33.1931 75.923 33.2258C76.0451 33.379 76.0199 33.6021 75.8667 33.7241C75.7135 33.8462 75.4904 33.821 75.3684 33.6678C75.3553 33.6514 75.3217 33.614 75.2684 33.5624C75.1754 33.4724 75.0644 33.3817 74.9366 33.2967C74.4336 32.9627 73.8365 32.8186 73.1408 32.969C72.9494 33.0103 72.7607 32.8887 72.7193 32.6973C72.6779 32.5059 72.7995 32.3172 72.9909 32.2758Z" fill="#83583A"/>
<path fill-rule="evenodd" clip-rule="evenodd" d="M67.1142 30.9394C67.458 30.8691 67.8137 30.8878 68.1546 30.9602L68.2097 30.9724C68.2977 30.9927 68.3663 31.0126 68.4113 31.0281C68.5966 31.0916 68.6953 31.2932 68.6318 31.4785C68.5703 31.658 68.3791 31.7562 68.1988 31.7045L68.1605 31.6925C68.1551 31.6909 68.1488 31.689 68.1415 31.687C68.1025 31.6759 68.0574 31.6646 68.0074 31.6539C67.7538 31.6001 67.4908 31.5862 67.2564 31.6342C66.9236 31.7023 66.6883 31.8847 66.5527 32.2359C66.4821 32.4186 66.2768 32.5095 66.0941 32.439C65.9114 32.3684 65.8205 32.1631 65.8911 31.9804C66.1182 31.3925 66.555 31.0538 67.1142 30.9394Z" fill="#83583A"/>
<path fill-rule="evenodd" clip-rule="evenodd" d="M76.0799 44.0674C75.7696 43.6419 72.7466 45.7607 73.9256 45.9557C75.1047 46.1419 76.7448 44.9806 76.0799 44.0674Z" fill="#83583A"/>
<path fill-rule="evenodd" clip-rule="evenodd" d="M63.4026 43.6773L74.8831 39.7943C74.8831 39.7943 76.4168 39.2092 76.3636 37.2146C76.3104 35.2199 73.8015 34.4752 73.8015 34.4752L61.5586 32.7465L63.4026 43.6773Z" fill="#D80000"/>
<path fill-rule="evenodd" clip-rule="evenodd" d="M51.1155 43.6773L62.596 39.7943C62.596 39.7943 64.1296 39.2092 64.0764 37.2146C64.0233 35.2199 61.5144 34.4752 61.5144 34.4752L55.5924 34.8653L49.2715 32.7465L51.1155 43.6773Z" fill="#D80000"/>
<path fill-rule="evenodd" clip-rule="evenodd" d="M61.4432 44.032C64.5719 44.032 67.1081 41.4957 67.1081 38.367C67.1081 35.2384 64.5719 32.7021 61.4432 32.7021C58.3146 32.7021 55.7783 35.2384 55.7783 38.367C55.7783 41.4957 58.3146 44.032 61.4432 44.032Z" fill="#83583A"/>
<path fill-rule="evenodd" clip-rule="evenodd" d="M49.0675 44.1117C52.1961 44.1117 54.7324 41.5755 54.7324 38.4468C54.7324 35.3182 52.1961 32.7819 49.0675 32.7819C45.9389 32.7819 43.4026 35.3182 43.4026 38.4468C43.4026 41.5755 45.9389 44.1117 49.0675 44.1117Z" fill="#83583A"/>
<path fill-rule="evenodd" clip-rule="evenodd" d="M56.8689 28.8893L56.9812 28.8657C58.3471 28.5833 59.7115 28.4552 60.2672 28.5383C60.9589 28.639 61.0956 29.296 60.6373 29.9311C60.1888 30.5527 59.2542 31.1348 57.9663 31.5292C57.8258 31.5722 57.6771 31.4932 57.6341 31.3527C57.5911 31.2123 57.6701 31.0636 57.8105 31.0205C58.9963 30.6575 59.8335 30.136 60.206 29.6199C60.453 29.2776 60.4235 29.1053 60.2032 29.0667L60.1895 29.0645C59.7019 28.9916 58.3612 29.1194 57.0328 29.3983L56.9797 29.4095C55.2704 29.7736 53.7683 30.3283 52.7761 31.0309C52.6563 31.1158 52.4903 31.0874 52.4054 30.9676C52.3205 30.8477 52.3488 30.6817 52.4687 30.5968C53.5306 29.8448 55.0951 29.2671 56.8689 28.8893Z" fill="#83583A"/>
<path fill-rule="evenodd" clip-rule="evenodd" d="M53.9864 30.6885C55.2699 30.3739 57.0425 30.6921 59.0093 31.4537L59.078 31.4804C60.5869 32.0713 62.1043 32.904 62.6023 33.3708L62.6191 33.3867C62.9256 33.6771 62.9621 34.0647 62.7037 34.3707C62.4812 34.6342 62.0659 34.806 61.5288 34.8627C60.297 34.9927 58.5901 34.5342 56.6673 33.4306L56.6024 33.3932L56.5435 33.3554L56.4949 33.325C56.4691 33.3092 56.4412 33.2924 56.4113 33.2748C56.2681 33.1906 56.1101 33.1063 55.9425 33.0277C55.5922 32.8634 55.2491 32.7473 54.9351 32.6998C54.779 32.6763 54.6336 32.6704 54.5008 32.6832C54.3546 32.6973 54.2246 32.5902 54.2105 32.444C54.1964 32.2978 54.3035 32.1678 54.4497 32.1537C54.6287 32.1365 54.8174 32.1441 55.0146 32.1739C55.386 32.23 55.7754 32.3618 56.1683 32.5461C56.3518 32.6321 56.5242 32.7241 56.6809 32.8163L56.7473 32.8559C56.795 32.8848 56.8337 32.9092 56.8624 32.9279L56.8756 32.9366L56.9319 32.9692C58.7437 34.0091 60.3273 34.441 61.435 34.3375L61.473 34.3337C61.8861 34.2901 62.1773 34.1696 62.2973 34.0275C62.3648 33.9475 62.3617 33.881 62.2646 33.7839L62.2514 33.7711C61.8312 33.3652 60.3505 32.55 58.884 31.9757C56.9834 31.2315 55.2787 30.9194 54.113 31.2051C53.9704 31.2401 53.8264 31.1528 53.7914 31.0102C53.7564 30.8675 53.8437 30.7235 53.9864 30.6885Z" fill="#83583A"/>
<path fill-rule="evenodd" clip-rule="evenodd" d="M51.3066 30.6693C52.5919 30.3883 54.3501 30.7182 56.2897 31.4746L56.359 31.5017C57.8525 32.0906 59.3453 32.9109 59.8363 33.3709L59.8531 33.3867C60.1596 33.6771 60.1961 34.0647 59.9376 34.3707C59.7151 34.6342 59.2999 34.806 58.7628 34.8627C57.5309 34.9927 55.824 34.5342 53.9013 33.4307L53.8364 33.3932L53.7775 33.3554L53.7288 33.3251C53.703 33.3092 53.6751 33.2924 53.6452 33.2748C53.502 33.1906 53.344 33.1063 53.1764 33.0277C52.8262 32.8634 52.483 32.7473 52.1691 32.6999C52.013 32.6763 51.8675 32.6704 51.7347 32.6832C51.5885 32.6973 51.4585 32.5902 51.4444 32.444C51.4303 32.2978 51.5374 32.1679 51.6836 32.1538C51.8626 32.1365 52.0513 32.1441 52.2485 32.1739C52.6199 32.23 53.0093 32.3618 53.4023 32.5461C53.5858 32.6321 53.7581 32.7242 53.9149 32.8163L53.9812 32.8559C54.0289 32.8848 54.0676 32.9092 54.0963 32.9279L54.1095 32.9367L54.1658 32.9692C55.9776 34.0091 57.5613 34.441 58.6689 34.3375L58.707 34.3337C59.12 34.2901 59.4112 34.1696 59.5312 34.0275C59.5988 33.9475 59.5957 33.881 59.4986 33.784L59.4854 33.7711C59.0719 33.3719 57.6153 32.5689 56.1639 31.9966L56.0285 31.9438C54.2055 31.2411 52.5646 30.9387 51.4202 31.1889C51.2767 31.2203 51.135 31.1294 51.1036 30.9859C51.0722 30.8424 51.1631 30.7007 51.3066 30.6693Z" fill="#83583A"/>
<path fill-rule="evenodd" clip-rule="evenodd" d="M48.3407 31.0528C49.581 30.4581 51.4713 30.6865 53.6739 31.4973L53.78 31.5368C55.391 32.1421 57.0601 33.0446 57.5748 33.5374C57.8813 33.8278 57.9178 34.2154 57.6594 34.5214C57.4369 34.7849 57.0216 34.9567 56.4845 35.0134C55.2526 35.1434 53.5458 34.6849 51.623 33.5814L51.5581 33.5439L51.4992 33.5061L51.4505 33.4757C51.4248 33.4599 51.3969 33.4431 51.3669 33.4255C51.2238 33.3413 51.0658 33.257 50.8982 33.1784C50.5479 33.0141 50.2047 32.898 49.8908 32.8505C49.7347 32.827 49.5893 32.8211 49.4564 32.8339C49.3102 32.848 49.1803 32.7409 49.1662 32.5947C49.1521 32.4485 49.2591 32.3185 49.4054 32.3044C49.5843 32.2872 49.773 32.2948 49.9703 32.3246C50.3416 32.3807 50.7311 32.5125 51.124 32.6968C51.3075 32.7828 51.4799 32.8748 51.6366 32.967L51.7029 33.0066C51.7507 33.0355 51.7894 33.0599 51.818 33.0786L51.8313 33.0873L51.8875 33.1199C53.6993 34.1598 55.283 34.5917 56.3907 34.4882L56.4287 34.4844C56.8418 34.4408 57.133 34.3203 57.253 34.1782C57.3235 34.0948 57.317 34.0259 57.208 33.9226L57.1764 33.8933C56.6778 33.445 55.0726 32.585 53.5412 32.0154L53.4902 31.9965C51.4121 31.2316 49.6439 31.0179 48.5707 31.5324C48.4382 31.5959 48.2794 31.54 48.2159 31.4076C48.1524 31.2751 48.2083 31.1163 48.3407 31.0528Z" fill="#83583A"/>
<path fill-rule="evenodd" clip-rule="evenodd" d="M94.8252 4.96731C97.3037 4.50317 99.7254 5.98055 100.269 8.28518L100.285 8.35527L102.04 16.4936C102.071 16.6372 101.98 16.7787 101.836 16.8096C101.698 16.8395 101.561 16.7557 101.524 16.6209L101.52 16.6057L99.765 8.46793C99.3174 6.41248 97.151 5.07293 94.9231 5.49013C92.7169 5.90327 91.2869 7.86745 91.6904 9.89823L91.7032 9.95979L94.3273 22.1052C94.3584 22.2487 94.2671 22.3903 94.1236 22.4213C93.9851 22.4512 93.8486 22.3674 93.8112 22.2327L93.8074 22.2175L91.1833 10.0723C90.6728 7.71814 92.3105 5.43822 94.8252 4.96731Z" fill="#83583A"/>
<path fill-rule="evenodd" clip-rule="evenodd" d="M104.688 5.02529C104.764 2.63058 106.912 0.747731 109.465 0.822818C112.002 0.897161 114.005 2.84687 113.971 5.20775L113.686 17.1411C113.683 17.288 113.561 17.4042 113.414 17.4006C113.272 17.3973 113.159 17.2838 113.154 17.144L113.154 17.1284L113.438 5.26465C113.504 3.17309 111.727 1.42123 109.45 1.3545C107.205 1.28847 105.324 2.91621 105.222 4.97953L105.22 5.04218L104.865 16.1503C104.86 16.2971 104.738 16.4124 104.591 16.4077C104.449 16.4032 104.337 16.2888 104.333 16.149L104.334 16.1334L104.688 5.02529Z" fill="#83583A"/>
<path fill-rule="evenodd" clip-rule="evenodd" d="M117.753 8.33703C118.263 5.99287 120.709 4.48075 123.212 4.94958C125.699 5.41533 127.332 7.66154 126.869 9.98397L126.854 10.0544L124.363 21.588C124.332 21.7316 124.19 21.8229 124.047 21.7919C123.908 21.762 123.818 21.6293 123.84 21.4911L123.843 21.4757L126.334 9.94163C126.78 7.89589 125.34 5.88922 123.114 5.4724C120.909 5.05937 118.763 6.36813 118.285 8.39593L118.271 8.4576L116.187 16.8618C116.152 17.0044 116.008 17.0913 115.865 17.056C115.728 17.0219 115.642 16.8866 115.668 16.7491L115.671 16.7339L117.753 8.33703Z" fill="#83583A"/>
<path fill-rule="evenodd" clip-rule="evenodd" d="M128.807 16.6011C129.956 14.4629 132.732 13.5992 135.021 14.6594C137.299 15.714 138.239 18.2776 137.137 20.4141L137.103 20.4787L126.181 40.8155C126.112 40.9449 125.95 40.9935 125.821 40.924C125.696 40.8571 125.647 40.7051 125.705 40.5784L125.713 40.5639L136.635 20.2269C137.642 18.3525 136.825 16.0809 134.798 15.1421C132.78 14.2077 130.338 14.9518 129.306 16.7965L129.275 16.8528L126.5 22.0212C126.431 22.1506 126.27 22.1992 126.14 22.1297C126.016 22.0628 125.966 21.9108 126.025 21.7841L126.032 21.7696L128.807 16.6011Z" fill="#83583A"/>
<path fill-rule="evenodd" clip-rule="evenodd" d="M89.5533 35.9696C89.6779 35.9027 89.8321 35.9453 89.9053 36.0641L89.9134 36.0781L92.3071 40.5374C92.3765 40.6668 92.3279 40.828 92.1985 40.8975C92.0739 40.9644 91.9198 40.9218 91.8465 40.803L91.8384 40.7889L89.4448 36.3297C89.3753 36.2003 89.4239 36.039 89.5533 35.9696Z" fill="#83583A"/>
<path fill-rule="evenodd" clip-rule="evenodd" d="M83.0159 14.6594C85.2822 13.6098 88.0261 14.4458 89.1958 16.5374L89.2308 16.6011L92.5109 22.7093C92.5804 22.8387 92.5318 22.9999 92.4024 23.0694C92.2778 23.1363 92.1237 23.0938 92.0504 22.975L92.0423 22.9609L88.7622 16.8529C87.7486 14.967 85.2774 14.1983 83.2394 15.1421C81.2323 16.0716 80.4118 18.3072 81.373 20.1706L81.4027 20.2269L88.4772 33.3918C88.5467 33.5212 88.4982 33.6825 88.3688 33.752C88.2442 33.819 88.0901 33.7764 88.0167 33.6577L88.0086 33.6436L80.9342 20.4787C79.7791 18.3295 80.7157 15.7246 83.0159 14.6594Z" fill="#83583A"/>
<path fill-rule="evenodd" clip-rule="evenodd" d="M103.174 15.7539C105.553 15.453 107.73 17.4431 108.08 20.1862L108.09 20.2695L109.069 28.856L110.944 20.2261C111.519 17.5446 113.864 15.9573 116.199 16.6823L116.27 16.7049C118.583 17.4699 119.982 20.2207 119.442 22.8818L119.425 22.9624L117.716 30.8433L120.873 23.9131C121.981 21.4734 124.602 20.5868 126.736 21.9238L126.801 21.965C128.897 23.3284 129.709 26.3581 128.651 28.785L128.618 28.8583L123.175 40.8264C123.114 40.9601 122.956 41.0192 122.823 40.9584C122.694 40.8998 122.634 40.7511 122.684 40.6206L122.691 40.6062L128.134 28.6382C129.135 26.4335 128.402 23.6412 126.511 22.4109C124.664 21.2096 122.392 21.9423 121.387 24.0685L121.357 24.1333L117.173 33.3177C117.043 33.6027 116.618 33.4672 116.668 33.1668L116.671 33.1511L118.905 22.8494C119.435 20.418 118.169 17.8931 116.103 17.21C114.083 16.5421 112.024 17.8957 111.48 20.2662L111.464 20.3384L109.247 30.5423C109.185 30.8307 108.773 30.8155 108.726 30.5326L108.723 30.5159L107.562 20.3297C107.277 17.8207 105.329 16.0175 103.241 16.2816C101.173 16.5431 99.6961 18.7391 99.9441 21.2137L99.9521 21.2888L101.158 31.7764C101.193 32.0809 100.773 32.1899 100.652 31.9178L100.646 31.9028L98.0038 25.0855C97.1085 22.7761 94.8355 21.7125 92.9291 22.6821C91.0179 23.6542 90.1606 26.2931 91.0176 28.6L91.044 28.6698L95.6717 40.6024C95.7248 40.7394 95.6569 40.8934 95.5199 40.9465C95.3879 40.9978 95.2399 40.9364 95.1819 40.8092L95.1758 40.7947L90.5481 28.8621C89.5531 26.2955 90.5017 23.3199 92.6879 22.208C94.8701 21.0981 97.4445 22.2815 98.4692 24.816L98.4997 24.8933L100.393 29.7778L99.4237 21.3493C99.1099 18.5994 100.743 16.1075 103.102 15.7636L103.174 15.7539Z" fill="#D80000"/>
<path fill-rule="evenodd" clip-rule="evenodd" d="M127.64 40.4415C128.486 40.4415 129.176 41.1211 129.191 41.9638L129.191 41.9929V46.7004C129.191 47.5467 128.512 48.2359 127.669 48.2515L127.64 48.2518H125.696L122.074 63.623C122.042 63.7609 121.908 63.8482 121.77 63.824L121.755 63.8209C121.617 63.7884 121.529 63.6541 121.554 63.5163L121.557 63.501L125.227 47.9248C125.254 47.8099 125.353 47.7273 125.47 47.7203L125.486 47.7199H127.64C128.194 47.7199 128.645 47.2766 128.659 46.7262L128.66 46.7004V41.9929C128.66 41.4392 128.216 40.9875 127.666 40.9737L127.64 40.9734H90.14C89.5864 40.9734 89.1346 41.4166 89.1209 41.967L89.1205 41.9929V46.7004C89.1205 47.254 89.5637 47.7058 90.1142 47.7195L90.14 47.7199H92.445C92.563 47.7199 92.6662 47.7975 92.6997 47.9094L92.7039 47.9248L99.078 74.9815C99.1117 75.1245 99.0231 75.2677 98.8801 75.3014C98.7422 75.3338 98.6042 75.2526 98.5643 75.1186L98.5602 75.1035L92.2344 48.2518H90.14C89.2937 48.2518 88.6044 47.5722 88.5889 46.7295L88.5886 46.7004V41.9929C88.5886 41.1465 89.2682 40.4573 90.1109 40.4418L90.14 40.4415H127.64Z" fill="#83583A"/>
<path fill-rule="evenodd" clip-rule="evenodd" d="M115.089 59.3459C115.687 59.0903 116.123 59.161 116.55 59.5401C116.649 59.6275 116.746 59.7283 116.87 59.8697L116.948 59.9594C117.02 60.0446 117.248 60.3114 117.331 60.4058C117.706 60.83 118.062 61.1673 118.512 61.4961C118.574 61.5418 118.638 61.5868 118.703 61.6309L118.788 61.6884C119.275 62.0138 119.675 62.2352 120.562 62.6909L120.895 62.8623C121.322 63.0832 121.579 63.2219 121.87 63.3922C122.973 64.0385 123.851 64.7708 124.718 65.8512C124.81 65.9658 124.792 66.1332 124.677 66.2251C124.563 66.3171 124.395 66.2988 124.303 66.1842C123.496 65.1783 122.685 64.495 121.666 63.8897L121.545 63.8186C121.276 63.6627 121.024 63.5272 120.606 63.3118L120.165 63.085C119.317 62.6467 118.925 62.4244 118.404 62.0708C118.334 62.0231 118.265 61.9747 118.198 61.9256C117.735 61.5872 117.364 61.2404 116.984 60.8162L116.894 60.7135C116.768 60.5688 116.522 60.2796 116.522 60.2806L116.473 60.2235C116.361 60.0961 116.277 60.0086 116.197 59.9378C115.924 59.6955 115.706 59.6603 115.299 59.8345C114.992 59.9674 114.926 60.2797 115.108 60.8442C115.282 61.3845 115.671 62.0763 116.236 62.8869C116.32 63.0074 116.291 63.1732 116.17 63.2572C116.05 63.3412 115.884 63.3116 115.8 63.1911C115.207 62.3407 114.795 61.6092 114.601 61.0073C114.346 60.214 114.473 59.6121 115.089 59.3459Z" fill="#83583A"/>
<path fill-rule="evenodd" clip-rule="evenodd" d="M106.361 61.0446L106.457 61.0408C107.409 61.0079 108.925 61.0822 110.419 61.2895C112.64 61.5976 114.636 62.1576 116.216 63.0182C116.345 63.0885 116.393 63.25 116.322 63.379C116.252 63.508 116.091 63.5556 115.962 63.4853C114.471 62.6734 112.571 62.134 110.451 61.8311L110.346 61.8164C108.832 61.6064 107.296 61.5358 106.385 61.5759C105.856 61.6015 105.725 61.9934 106.155 62.6017C106.24 62.7215 106.212 62.8875 106.092 62.9724C105.972 63.0573 105.806 63.0289 105.721 62.909C105.068 61.9866 105.367 61.0925 106.361 61.0446Z" fill="#83583A"/>
<path fill-rule="evenodd" clip-rule="evenodd" d="M104.623 62.5078C105.371 62.4507 107.039 62.6401 108.76 63.0037C110.912 63.4583 112.953 64.1272 114.572 64.9754C114.702 65.0435 114.752 65.2043 114.684 65.3344C114.616 65.4645 114.455 65.5147 114.325 65.4465C112.755 64.6238 110.758 63.9695 108.65 63.5241L108.473 63.4873C106.86 63.1573 105.326 62.9876 104.664 63.0382C103.846 63.1001 104.008 64.2189 105.431 65.358C105.545 65.4498 105.564 65.6172 105.472 65.7318C105.38 65.8465 105.213 65.865 105.098 65.7731C104.257 65.0999 103.753 64.368 103.66 63.7288C103.562 63.0543 103.946 62.5591 104.623 62.5078Z" fill="#83583A"/>
<path fill-rule="evenodd" clip-rule="evenodd" d="M105.57 65.2556C107.043 65.1832 110.929 66.0845 113.724 67.3352C113.858 67.3952 113.918 67.5526 113.858 67.6866C113.798 67.8207 113.641 67.8808 113.506 67.8208C112.092 67.1879 110.473 66.6604 108.878 66.2822L108.741 66.2502C107.375 65.9334 106.147 65.7598 105.597 65.7868C105.19 65.8086 104.987 66.1149 105.073 66.6335C105.182 67.2917 105.732 68.0875 106.668 68.8128C106.784 68.9028 106.805 69.0699 106.715 69.186C106.625 69.3021 106.458 69.3232 106.342 69.2333C105.308 68.432 104.682 67.5253 104.548 66.7206C104.414 65.9091 104.821 65.2956 105.57 65.2556Z" fill="#83583A"/>
<path fill-rule="evenodd" clip-rule="evenodd" d="M107.138 68.0499C108.144 67.9267 110.986 68.6406 113.566 69.7082C113.702 69.7643 113.767 69.9199 113.71 70.0556C113.654 70.1913 113.499 70.2558 113.363 70.1997L113.213 70.138C110.752 69.1375 108.074 68.4712 107.202 68.5779C106.904 68.6134 106.785 68.7316 106.797 68.9338C106.814 69.2269 107.078 69.6563 107.587 70.1374C108.901 71.3801 111.469 72.6803 115.101 73.7683C115.242 73.8104 115.322 73.9587 115.28 74.0994C115.238 74.2401 115.089 74.32 114.949 74.2778C111.244 73.168 108.605 71.832 107.221 70.5239C106.624 69.9585 106.292 69.4201 106.266 68.9644C106.237 68.4581 106.581 68.1163 107.138 68.0499Z" fill="#83583A"/>
<path fill-rule="evenodd" clip-rule="evenodd" d="M116.196 62.9237L116.212 62.9242C119.664 63.1399 122.566 64.1345 124.634 65.6935C126.521 67.1165 127.587 68.9352 127.581 70.6584C127.576 72.4337 126.44 73.8956 124.395 74.6338C122.147 75.4452 118.931 75.3643 114.955 74.2796C114.813 74.241 114.73 74.0948 114.768 73.9531C114.807 73.8114 114.953 73.7278 115.095 73.7665C118.974 74.8246 122.083 74.9029 124.214 74.1335C126.058 73.4681 127.045 72.1979 127.049 70.6567C127.054 69.1165 126.076 67.4472 124.313 66.1183C122.332 64.6249 119.531 63.6645 116.178 63.4551C116.032 63.446 115.92 63.3197 115.93 63.1731C115.938 63.0317 116.056 62.9231 116.196 62.9237Z" fill="#83583A"/>
<path fill-rule="evenodd" clip-rule="evenodd" d="M150.965 74.8298C151.111 74.8298 151.231 74.9489 151.231 75.0957C151.231 75.2374 151.12 75.3532 150.98 75.3613L150.965 75.3617H1.00009C0.853204 75.3617 0.734131 75.2426 0.734131 75.0957C0.734131 74.9541 0.844851 74.8383 0.984461 74.8302L1.00009 74.8298H150.965Z" fill="#83583A"/>
</svg>
