<svg width="152" height="83" viewBox="0 0 152 83" fill="none" xmlns="http://www.w3.org/2000/svg">
<path fill-rule="evenodd" clip-rule="evenodd" d="M83.6833 82.3345H41.7878C40.1885 82.3345 38.8923 81.0383 38.8923 79.439V11.2334C38.8923 9.63413 40.1885 8.33796 41.7878 8.33796H83.6833C82.084 8.33796 80.7878 9.63413 80.7878 11.2334V79.439C80.7773 81.0279 82.084 82.3345 83.6833 82.3345Z" fill="#FEBA91"/>
<path fill-rule="evenodd" clip-rule="evenodd" d="M50.1709 14.108L53.7981 1.68991C53.934 1.22998 54.4148 0.968656 54.8747 1.09409L82.1465 9.0488V17.1185" fill="white"/>
<path fill-rule="evenodd" clip-rule="evenodd" d="M53.4975 1.60104C53.6784 0.988741 54.3108 0.632471 54.9322 0.78511L54.9627 0.793028L82.2345 8.74773C82.3622 8.78498 82.4518 8.89843 82.4597 9.02988L82.4603 9.04878V17.1185C82.4603 17.2917 82.3199 17.4321 82.1467 17.4321C81.9797 17.4321 81.8432 17.3015 81.8336 17.1369L81.8331 17.1185L81.833 9.28386L54.7924 1.39661C54.502 1.31741 54.2016 1.47661 54.1064 1.75554L54.0993 1.77781L50.4721 14.1959C50.4235 14.3622 50.2494 14.4576 50.0832 14.409C49.9229 14.3622 49.8284 14.1986 49.8654 14.0379L49.8701 14.0201L53.4975 1.60104Z" fill="#2E186A"/>
<path fill-rule="evenodd" clip-rule="evenodd" d="M58.2326 4.76902C58.2795 4.60884 58.443 4.51452 58.6036 4.55148L58.6214 4.55613L81.3566 11.1938C81.5228 11.2423 81.6182 11.4164 81.5697 11.5827C81.5229 11.743 81.3593 11.8374 81.1986 11.8005L81.1808 11.7958L58.7312 5.24141L58.7165 5.27736C58.1498 6.62426 56.699 7.39718 55.2615 7.10063L55.2347 7.09482L53.0854 14.4469C53.0385 14.6072 52.8749 14.7016 52.7142 14.6645L52.6964 14.6599C52.5361 14.613 52.4417 14.4494 52.4787 14.2887L52.4834 14.2709L54.7203 6.61933C54.7702 6.4487 54.9518 6.35361 55.1205 6.40983L55.143 6.41766L55.1983 6.43911L55.232 6.44878C56.5028 6.79854 57.8289 6.06989 58.2208 4.80782L58.2326 4.76902Z" fill="#2E186A"/>
<path fill-rule="evenodd" clip-rule="evenodd" d="M45.6553 32.3171L47.2337 14.7247C47.2755 14.2439 47.6936 13.8989 48.1744 13.9408L81.0594 16.8362V31.1881" fill="white"/>
<path fill-rule="evenodd" clip-rule="evenodd" d="M46.9214 14.6976C46.9773 14.0549 47.5301 13.5863 48.1715 13.6261L48.2021 13.6284L81.0871 16.5238C81.2427 16.5376 81.3635 16.6634 81.3726 16.8176L81.3731 16.8362V31.1881C81.3731 31.3613 81.2327 31.5017 81.0596 31.5017C80.8926 31.5017 80.756 31.3712 80.7465 31.2066L80.746 31.1881V17.1234L48.1474 14.2532C47.8448 14.2269 47.5861 14.4348 47.5486 14.7299L47.5461 14.7527L45.9677 32.3451C45.9523 32.5176 45.7999 32.6449 45.6274 32.6294C45.461 32.6145 45.3367 32.4722 45.342 32.3074L45.3431 32.289L46.9214 14.6976Z" fill="#2E186A"/>
<path fill-rule="evenodd" clip-rule="evenodd" d="M53.1202 17.0589C53.1352 16.8927 53.2773 16.7685 53.442 16.7736L53.4604 16.7748L80.7217 19.2103C80.8942 19.2257 81.0216 19.378 81.0062 19.5505C80.9913 19.7169 80.8491 19.8412 80.6843 19.8361L80.6659 19.835L53.7003 17.4259L53.6989 17.4339C53.388 18.9981 51.8753 20.1169 50.1364 20.068L50.1111 20.067L49.0096 32.3659C48.9947 32.5323 48.8525 32.6566 48.6877 32.6514L48.6693 32.6503C48.503 32.6354 48.3787 32.4932 48.3838 32.3284L48.385 32.31L49.5139 19.7037C49.5284 19.542 49.6639 19.4181 49.8262 19.4181C49.8542 19.4181 49.8726 19.4196 49.903 19.4237L49.9346 19.4284C49.9345 19.4285 49.9332 19.4286 49.9307 19.4286L49.9445 19.4289L49.9582 19.4298C51.5785 19.5719 52.9899 18.501 53.1202 17.0589Z" fill="#2E186A"/>
<path fill-rule="evenodd" clip-rule="evenodd" d="M57.7599 32.0557C57.9331 32.0557 58.0735 32.1961 58.0735 32.3693C58.0735 32.5363 57.943 32.6729 57.7783 32.6824L57.7599 32.6829H42.6031C42.4299 32.6829 42.2896 32.5425 42.2896 32.3693C42.2896 32.2023 42.4201 32.0658 42.5847 32.0563L42.6031 32.0557H57.7599Z" fill="#2E186A"/>
<path fill-rule="evenodd" clip-rule="evenodd" d="M42.603 33.101C43.0071 33.101 43.3347 32.7734 43.3347 32.3693C43.3347 31.9652 43.0071 31.6376 42.603 31.6376C42.1989 31.6376 41.8713 31.9652 41.8713 32.3693C41.8713 32.7734 42.1989 33.101 42.603 33.101Z" fill="#2E186A"/>
<path fill-rule="evenodd" clip-rule="evenodd" d="M63.7179 82.3345H59.7458C58.7109 82.3345 57.8643 81.4878 57.8643 80.4529V25.993C57.8643 24.9582 58.7109 24.1115 59.7458 24.1115H61.8364C62.8712 24.1115 63.7179 24.9582 63.7179 25.993V82.3345Z" fill="#6A1818"/>
<path fill-rule="evenodd" clip-rule="evenodd" d="M111.488 82.3449H61.9202C63.07 82.3449 64.0108 81.4042 64.0108 80.2544V26.2021C64.0108 25.0523 63.07 24.1115 61.9202 24.1115H111.488C112.638 24.1115 113.579 25.0523 113.579 26.2021V80.2544C113.579 81.4146 112.638 82.3449 111.488 82.3449Z" fill="#D80000"/>
<path fill-rule="evenodd" clip-rule="evenodd" d="M61.8365 24.1115C63.0297 24.1115 64.0112 25.0139 64.0313 26.1457L64.0317 26.1812V82.1673C64.0317 82.3405 63.8913 82.4809 63.7181 82.4809C63.5511 82.4809 63.4146 82.3503 63.405 82.1857L63.4045 82.1673V26.1812C63.4045 25.3896 62.7053 24.7387 61.8365 24.7387C61.6633 24.7387 61.5229 24.5983 61.5229 24.4251C61.5229 24.2519 61.6633 24.1115 61.8365 24.1115Z" fill="#6A1818"/>
<path fill-rule="evenodd" clip-rule="evenodd" d="M57.8433 27.4983C58.0165 27.4983 58.1569 27.6387 58.1569 27.8118C58.1569 27.9789 58.0264 28.1154 57.8618 28.1249L57.8433 28.1254H54.8329C54.6597 28.1254 54.5193 27.985 54.5193 27.8118C54.5193 27.6448 54.6498 27.5083 54.8145 27.4988L54.8329 27.4983H57.8433Z" fill="#6A1818"/>
<path fill-rule="evenodd" clip-rule="evenodd" d="M57.8433 29.7561C58.0165 29.7561 58.1569 29.8965 58.1569 30.0697C58.1569 30.2367 58.0264 30.3732 57.8618 30.3827L57.8433 30.3833H54.8329C54.6597 30.3833 54.5193 30.2429 54.5193 30.0697C54.5193 29.9027 54.6498 29.7662 54.8145 29.7566L54.8329 29.7561H57.8433Z" fill="#6A1818"/>
<path fill-rule="evenodd" clip-rule="evenodd" d="M57.8433 34.2822C58.0165 34.2822 58.1569 34.4226 58.1569 34.5958C58.1569 34.7628 58.0264 34.8993 57.8618 34.9089L57.8433 34.9094H54.8329C54.6597 34.9094 54.5193 34.769 54.5193 34.5958C54.5193 34.4288 54.6498 34.2923 54.8145 34.2828L54.8329 34.2822H57.8433Z" fill="#6A1818"/>
<path fill-rule="evenodd" clip-rule="evenodd" d="M57.8433 36.5401C58.0165 36.5401 58.1569 36.6805 58.1569 36.8537C58.1569 37.0207 58.0264 37.1572 57.8618 37.1667L57.8433 37.1672H54.8329C54.6597 37.1672 54.5193 37.0268 54.5193 36.8537C54.5193 36.6866 54.6498 36.5501 54.8145 36.5406L54.8329 36.5401H57.8433Z" fill="#6A1818"/>
<path fill-rule="evenodd" clip-rule="evenodd" d="M57.8433 38.7979C58.0165 38.7979 58.1569 38.9383 58.1569 39.1115C58.1569 39.2785 58.0264 39.415 57.8618 39.4246L57.8433 39.4251H54.8329C54.6597 39.4251 54.5193 39.2847 54.5193 39.1115C54.5193 38.9445 54.6498 38.808 54.8145 38.7984L54.8329 38.7979H57.8433Z" fill="#6A1818"/>
<path fill-rule="evenodd" clip-rule="evenodd" d="M57.8433 41.0662C58.0165 41.0662 58.1569 41.2066 58.1569 41.3798C58.1569 41.5468 58.0264 41.6833 57.8618 41.6928L57.8433 41.6934H54.8329C54.6597 41.6934 54.5193 41.553 54.5193 41.3798C54.5193 41.2128 54.6498 41.0763 54.8145 41.0667L54.8329 41.0662H57.8433Z" fill="#6A1818"/>
<path fill-rule="evenodd" clip-rule="evenodd" d="M57.8433 43.324C58.0165 43.324 58.1569 43.4644 58.1569 43.6376C58.1569 43.8046 58.0264 43.9412 57.8618 43.9507L57.8433 43.9512H54.8329C54.6597 43.9512 54.5193 43.8108 54.5193 43.6376C54.5193 43.4706 54.6498 43.3341 54.8145 43.3246L54.8329 43.324H57.8433Z" fill="#6A1818"/>
<path fill-rule="evenodd" clip-rule="evenodd" d="M57.8433 45.5923C58.0165 45.5923 58.1569 45.7327 58.1569 45.9059C58.1569 46.0729 58.0264 46.2094 57.8618 46.219L57.8433 46.2195H54.8329C54.6597 46.2195 54.5193 46.0791 54.5193 45.9059C54.5193 45.7389 54.6498 45.6024 54.8145 45.5929L54.8329 45.5923H57.8433Z" fill="#6A1818"/>
<path fill-rule="evenodd" clip-rule="evenodd" d="M57.8433 47.8502C58.0165 47.8502 58.1569 47.9906 58.1569 48.1638C58.1569 48.3308 58.0264 48.4673 57.8618 48.4768L57.8433 48.4773H54.8329C54.6597 48.4773 54.5193 48.3369 54.5193 48.1638C54.5193 47.9968 54.6498 47.8602 54.8145 47.8507L54.8329 47.8502H57.8433Z" fill="#6A1818"/>
<path fill-rule="evenodd" clip-rule="evenodd" d="M57.8433 50.108C58.0165 50.108 58.1569 50.2484 58.1569 50.4216C58.1569 50.5886 58.0264 50.7251 57.8618 50.7347L57.8433 50.7352H54.8329C54.6597 50.7352 54.5193 50.5948 54.5193 50.4216C54.5193 50.2546 54.6498 50.1181 54.8145 50.1085L54.8329 50.108H57.8433Z" fill="#6A1818"/>
<path fill-rule="evenodd" clip-rule="evenodd" d="M57.8433 52.3763C58.0165 52.3763 58.1569 52.5167 58.1569 52.6899C58.1569 52.8569 58.0264 52.9934 57.8618 53.003L57.8433 53.0035H54.8329C54.6597 53.0035 54.5193 52.8631 54.5193 52.6899C54.5193 52.5229 54.6498 52.3864 54.8145 52.3768L54.8329 52.3763H57.8433Z" fill="#6A1818"/>
<path fill-rule="evenodd" clip-rule="evenodd" d="M57.8433 54.6342C58.0165 54.6342 58.1569 54.7746 58.1569 54.9477C58.1569 55.1147 58.0264 55.2512 57.8618 55.2608L57.8433 55.2613H54.8329C54.6597 55.2613 54.5193 55.1209 54.5193 54.9477C54.5193 54.7807 54.6498 54.6442 54.8145 54.6347L54.8329 54.6342H57.8433Z" fill="#6A1818"/>
<path fill-rule="evenodd" clip-rule="evenodd" d="M57.8433 56.892C58.0165 56.892 58.1569 57.0324 58.1569 57.2056C58.1569 57.3726 58.0264 57.5091 57.8618 57.5186L57.8433 57.5192H54.8329C54.6597 57.5192 54.5193 57.3788 54.5193 57.2056C54.5193 57.0386 54.6498 56.9021 54.8145 56.8925L54.8329 56.892H57.8433Z" fill="#6A1818"/>
<path fill-rule="evenodd" clip-rule="evenodd" d="M57.8433 59.1603C58.0165 59.1603 58.1569 59.3007 58.1569 59.4739C58.1569 59.6409 58.0264 59.7774 57.8618 59.7869L57.8433 59.7875H54.8329C54.6597 59.7875 54.5193 59.6471 54.5193 59.4739C54.5193 59.3069 54.6498 59.1704 54.8145 59.1608L54.8329 59.1603H57.8433Z" fill="#6A1818"/>
<path fill-rule="evenodd" clip-rule="evenodd" d="M57.8433 61.4181C58.0165 61.4181 58.1569 61.5585 58.1569 61.7317C58.1569 61.8987 58.0264 62.0352 57.8618 62.0448L57.8433 62.0453H54.8329C54.6597 62.0453 54.5193 61.9049 54.5193 61.7317C54.5193 61.5647 54.6498 61.4282 54.8145 61.4186L54.8329 61.4181H57.8433Z" fill="#6A1818"/>
<path fill-rule="evenodd" clip-rule="evenodd" d="M57.8433 65.9442C58.0165 65.9442 58.1569 66.0846 58.1569 66.2578C58.1569 66.4248 58.0264 66.5613 57.8618 66.5709L57.8433 66.5714H54.8329C54.6597 66.5714 54.5193 66.431 54.5193 66.2578C54.5193 66.0908 54.6498 65.9543 54.8145 65.9448L54.8329 65.9442H57.8433Z" fill="#6A1818"/>
<path fill-rule="evenodd" clip-rule="evenodd" d="M57.8433 68.2021C58.0165 68.2021 58.1569 68.3425 58.1569 68.5157C58.1569 68.6827 58.0264 68.8192 57.8618 68.8287L57.8433 68.8293H54.8329C54.6597 68.8293 54.5193 68.6889 54.5193 68.5157C54.5193 68.3487 54.6498 68.2122 54.8145 68.2026L54.8329 68.2021H57.8433Z" fill="#6A1818"/>
<path fill-rule="evenodd" clip-rule="evenodd" d="M57.8433 70.4599C58.0165 70.4599 58.1569 70.6003 58.1569 70.7735C58.1569 70.9405 58.0264 71.077 57.8618 71.0866L57.8433 71.0871H54.8329C54.6597 71.0871 54.5193 70.9467 54.5193 70.7735C54.5193 70.6065 54.6498 70.47 54.8145 70.4605L54.8329 70.4599H57.8433Z" fill="#6A1818"/>
<path fill-rule="evenodd" clip-rule="evenodd" d="M57.8433 72.7282C58.0165 72.7282 58.1569 72.8686 58.1569 73.0418C58.1569 73.2088 58.0264 73.3453 57.8618 73.3549L57.8433 73.3554H54.8329C54.6597 73.3554 54.5193 73.215 54.5193 73.0418C54.5193 72.8748 54.6498 72.7383 54.8145 72.7288L54.8329 72.7282H57.8433Z" fill="#6A1818"/>
<path fill-rule="evenodd" clip-rule="evenodd" d="M57.8433 74.9861C58.0165 74.9861 58.1569 75.1265 58.1569 75.2996C58.1569 75.4667 58.0264 75.6032 57.8618 75.6127L57.8433 75.6132H54.8329C54.6597 75.6132 54.5193 75.4728 54.5193 75.2996C54.5193 75.1326 54.6498 74.9961 54.8145 74.9866L54.8329 74.9861H57.8433Z" fill="#6A1818"/>
<path fill-rule="evenodd" clip-rule="evenodd" d="M57.8433 77.2439C58.0165 77.2439 58.1569 77.3843 58.1569 77.5575C58.1569 77.7245 58.0264 77.861 57.8618 77.8705L57.8433 77.8711H54.8329C54.6597 77.8711 54.5193 77.7307 54.5193 77.5575C54.5193 77.3905 54.6498 77.254 54.8145 77.2444L54.8329 77.2439H57.8433Z" fill="#6A1818"/>
<path fill-rule="evenodd" clip-rule="evenodd" d="M63.7178 62.2125C62.9757 62.0453 62.2126 61.9512 61.4182 61.9512C55.8154 61.9512 51.2788 66.4878 51.2788 72.0906C51.2788 77.6934 55.8154 82.23 61.4182 82.23C62.2126 82.23 62.9757 82.1359 63.7178 81.9687V62.2125Z" fill="white"/>
<path fill-rule="evenodd" clip-rule="evenodd" d="M63.7388 71.6829C63.4566 71.6829 63.1639 71.6829 62.8712 71.6829C63.1012 71.0139 63.3938 70.5017 63.7388 70.1463V68.5993C63.582 68.6725 63.4357 68.7561 63.3102 68.8606C62.8607 69.216 62.5263 69.6237 62.3067 70.0836C62.0872 70.5435 61.8886 71.0766 61.7214 71.6829H61.0837H57.0698C57.1325 71.0035 57.3939 70.4808 57.8642 70.1254C58.3346 69.77 58.8468 69.5923 59.4217 69.5923C59.6517 69.5819 59.8085 69.5296 59.8921 69.4355C59.9757 69.3414 60.0175 69.1847 60.0175 68.9651C60.0175 68.7247 59.9653 68.5679 59.8608 68.4948C59.7562 68.4216 59.5576 68.3902 59.2754 68.3902C58.7318 68.3902 58.2196 68.5261 57.7493 68.8083C57.2789 69.0906 56.8817 69.4773 56.5785 69.9686C56.2754 70.4704 56.0872 71.0348 56.035 71.6725H54.5088C54.4357 71.6725 54.3729 71.7143 54.3207 71.7874C54.258 71.8606 54.2371 71.9547 54.2371 72.0697C54.2371 72.1742 54.2684 72.2683 54.3311 72.3414C54.3939 72.4146 54.467 72.4564 54.5506 72.4564H56.0454C56.0872 73.115 56.2545 73.7108 56.5367 74.2543C56.8189 74.7874 57.2162 75.216 57.7074 75.5192C58.2092 75.8223 58.7736 75.9791 59.4113 75.9791C60.143 75.9791 60.7283 75.7805 61.1674 75.3937C61.6064 75.007 61.9304 74.5784 62.1186 74.108C62.3172 73.6376 62.5053 73.0836 62.6935 72.4355C62.9757 72.4355 63.3416 72.4355 63.7806 72.446V71.6829H63.7388ZM60.676 74.1394C60.3624 74.5366 59.9234 74.7247 59.3694 74.7247C58.7422 74.7247 58.23 74.5261 57.8224 74.1289C57.4147 73.7317 57.1743 73.1777 57.0906 72.4669C58.0105 72.4564 59.3903 72.446 61.2614 72.446H61.5018C61.2614 73.1777 60.9896 73.7422 60.676 74.1394Z" fill="#D80000"/>
<path fill-rule="evenodd" clip-rule="evenodd" d="M81.0696 31.5122H72.864C71.7664 31.5122 70.8779 32.2543 70.8779 33.1638V39.8014H81.0487" fill="white"/>
<rect x="70.8259" y="34.3554" width="10.2439" height="1.88153" fill="#6A1818"/>
<path fill-rule="evenodd" clip-rule="evenodd" d="M81.0696 52.8153H72.864C71.7664 52.8153 70.8779 53.5575 70.8779 54.4669V61.1045H81.0487" fill="white"/>
<rect x="70.8259" y="55.6585" width="10.2439" height="1.88152" fill="#6A1818"/>
<path fill-rule="evenodd" clip-rule="evenodd" d="M81.1953 39.4773C81.3685 39.4773 81.5089 39.6177 81.5089 39.7909C81.5089 39.9579 81.3783 40.0945 81.2137 40.104L81.1953 40.1045H68.4217C68.2486 40.1045 68.1082 39.9641 68.1082 39.7909C68.1082 39.6239 68.2387 39.4874 68.4033 39.4779L68.4217 39.4773H81.1953Z" fill="#6A1818"/>
<path fill-rule="evenodd" clip-rule="evenodd" d="M68.4216 40.5226C68.8258 40.5226 69.1534 40.1951 69.1534 39.7909C69.1534 39.3868 68.8258 39.0592 68.4216 39.0592C68.0175 39.0592 67.6899 39.3868 67.6899 39.7909C67.6899 40.1951 68.0175 40.5226 68.4216 40.5226Z" fill="#6A1818"/>
<path fill-rule="evenodd" clip-rule="evenodd" d="M81.1953 60.7805C81.3685 60.7805 81.5089 60.9209 81.5089 61.0941C81.5089 61.2611 81.3783 61.3976 81.2137 61.4071L81.1953 61.4076H68.4217C68.2486 61.4076 68.1082 61.2673 68.1082 61.0941C68.1082 60.9271 68.2387 60.7905 68.4033 60.781L68.4217 60.7805H81.1953Z" fill="#6A1818"/>
<path fill-rule="evenodd" clip-rule="evenodd" d="M120.059 82.3345H82.4287C81.2789 82.3345 80.3381 81.3937 80.3381 80.2439V10.4181C80.3381 9.2683 81.2789 8.32753 82.4287 8.32753H120.059C121.209 8.32753 122.15 9.2683 122.15 10.4181V80.2439C122.15 81.3937 121.209 82.3345 120.059 82.3345Z" fill="#83583A"/>
<path fill-rule="evenodd" clip-rule="evenodd" d="M115.523 71.9861H91.6798C90.0282 71.9861 88.7007 70.6481 88.7007 69.007V16.1672C88.7007 14.5157 90.0387 13.1882 91.6798 13.1882H115.523C117.175 13.1882 118.502 14.5261 118.502 16.1672V69.007C118.502 70.6481 117.164 71.9861 115.523 71.9861Z" fill="white"/>
<path fill-rule="evenodd" clip-rule="evenodd" d="M104.275 80.0349C102.603 80.0349 101.244 78.676 101.244 77.0035C101.244 75.331 102.603 73.9721 104.275 73.9721C105.948 73.9721 107.307 75.331 107.307 77.0035C107.307 78.676 105.948 80.0349 104.275 80.0349ZM104.275 74.5993C102.948 74.5993 101.871 75.676 101.871 77.0035C101.871 78.331 102.948 79.4077 104.275 79.4077C105.603 79.4077 106.679 78.331 106.679 77.0035C106.679 75.676 105.603 74.5993 104.275 74.5993Z" fill="#D12121"/>
<path fill-rule="evenodd" clip-rule="evenodd" d="M98.3174 11.777C98.7215 11.777 99.0491 11.4494 99.0491 11.0453C99.0491 10.6412 98.7215 10.3136 98.3174 10.3136C97.9133 10.3136 97.5857 10.6412 97.5857 11.0453C97.5857 11.4494 97.9133 11.777 98.3174 11.777Z" fill="#D12121"/>
<path fill-rule="evenodd" clip-rule="evenodd" d="M108.561 11.6725H100.93C100.585 11.6725 100.303 11.3903 100.303 11.0453C100.303 10.7004 100.585 10.4181 100.93 10.4181H108.561C108.906 10.4181 109.188 10.7004 109.188 11.0453C109.188 11.3903 108.906 11.6725 108.561 11.6725Z" fill="#D12121"/>
<path fill-rule="evenodd" clip-rule="evenodd" d="M86.6623 8.63065C86.8355 8.63065 86.9759 8.77105 86.9759 8.94424C86.9759 9.11743 86.8355 9.25783 86.6623 9.25783C85.2082 9.25783 84.0208 10.4222 83.9972 11.8588L83.9968 11.9024V79.3763C83.9968 80.8366 85.1868 82.0209 86.6623 82.0209C86.8355 82.0209 86.9759 82.1613 86.9759 82.3345C86.9759 82.5077 86.8355 82.6481 86.6623 82.6481C84.8593 82.6481 83.3991 81.2128 83.3701 79.4304L83.3696 79.3763V11.9024C83.3696 10.0984 84.8482 8.63065 86.6623 8.63065Z" fill="#6A1818"/>
<path fill-rule="evenodd" clip-rule="evenodd" d="M81.8016 52.7422C81.4671 52.7422 81.2058 52.4704 81.2058 52.1463V42.6028C81.2058 42.2683 81.4776 42.007 81.8016 42.007C82.1361 42.007 82.3975 42.2787 82.3975 42.6028V52.1463C82.3975 52.4704 82.1361 52.7422 81.8016 52.7422Z" fill="#6A1818"/>
<path fill-rule="evenodd" clip-rule="evenodd" d="M112.293 33.561C111.822 33.2683 111.216 33.4146 110.923 33.8746L108.477 37.8049C107.024 36.6341 105.174 35.9338 103.167 35.9338C98.4949 35.9338 94.7004 39.7387 94.7004 44.4007C94.7004 49.0627 98.5053 52.8676 103.167 52.8676C107.829 52.8676 111.634 49.0627 111.634 44.4007C111.634 42.4773 110.986 40.7003 109.899 39.2683L112.606 34.9199C112.899 34.4704 112.763 33.8537 112.293 33.561ZM111.018 44.4111C111.018 48.7387 107.495 52.2509 103.178 52.2509C98.8607 52.2509 95.3381 48.7282 95.3381 44.4111C95.3381 40.0941 98.8607 36.5714 103.178 36.5714C105.059 36.5714 106.795 37.2404 108.153 38.3589L103.721 45.4774L101.16 42.0592C100.826 41.6202 100.209 41.5366 99.7701 41.8606C99.3311 42.1951 99.2475 42.8118 99.5715 43.2509L103.011 47.8188C103.199 48.0697 103.491 48.216 103.805 48.216C103.815 48.216 103.836 48.216 103.847 48.216C104.171 48.2056 104.474 48.0279 104.641 47.7456L109.554 39.8432C110.474 41.1394 111.018 42.7073 111.018 44.4111Z" fill="#D12121"/>
<path fill-rule="evenodd" clip-rule="evenodd" d="M57.7284 42.5087H38.9549V10.4181C38.9549 9.2683 40.5751 8.32753 41.7249 8.32753H33.812C32.6622 8.32753 31.7214 9.2683 31.7214 10.4181V80.2439C31.7214 81.3937 32.6622 82.3345 33.812 82.3345H41.0455C39.8956 82.3345 38.9549 81.3937 38.9549 80.2439V53.2753H57.7284C60.049 53.2753 61.92 51.3937 61.92 49.0836V46.7004C61.92 44.3798 60.049 42.5087 57.7284 42.5087Z" fill="#83583A"/>
<path fill-rule="evenodd" clip-rule="evenodd" d="M56.9028 50.3484C55.523 50.3484 54.394 49.2195 54.394 47.8397C54.394 46.4599 55.523 45.331 56.9028 45.331C58.2825 45.331 59.4115 46.4599 59.4115 47.8397C59.4115 49.2195 58.293 50.3484 56.9028 50.3484ZM56.9028 45.9582C55.868 45.9582 55.0213 46.8049 55.0213 47.8397C55.0213 48.8746 55.868 49.7213 56.9028 49.7213C57.9377 49.7213 58.7844 48.8746 58.7844 47.8397C58.7844 46.8049 57.9481 45.9582 56.9028 45.9582Z" fill="#D12121"/>
<path fill-rule="evenodd" clip-rule="evenodd" d="M41.7041 8.2439V8.87108C40.2156 8.87108 39.1336 9.87387 39.1121 11.2846L39.1118 11.3275V42.4669H38.4846V11.3275C38.4846 9.55672 39.8352 8.26985 41.649 8.24429L41.7041 8.2439Z" fill="#2E186A"/>
<path fill-rule="evenodd" clip-rule="evenodd" d="M39.1118 53.2648V79.3763C39.1118 80.822 40.2781 81.9972 41.7331 82.0205L41.7773 82.0209V82.6481C39.9743 82.6481 38.5141 81.2129 38.4851 79.4304L38.4846 79.3763V53.2648H39.1118Z" fill="#2E186A"/>
<path fill-rule="evenodd" clip-rule="evenodd" d="M151 82.0209C151.173 82.0209 151.314 82.1613 151.314 82.3345C151.314 82.5015 151.183 82.638 151.019 82.6476L151 82.6481H1.00011C0.826922 82.6481 0.686523 82.5077 0.686523 82.3345C0.686523 82.1675 0.817073 82.031 0.981687 82.0214L1.00011 82.0209H151Z" fill="#2E186A"/>
</svg>
