<svg width="26" height="28" viewBox="0 0 26 28" fill="none" xmlns="http://www.w3.org/2000/svg">
<path d="M18.625 9.20001H7.375C6.85723 9.20001 6.4375 9.61975 6.4375 10.1375C6.4375 10.6553 6.85723 11.075 7.375 11.075H18.625C19.1428 11.075 19.5625 10.6553 19.5625 10.1375C19.5625 9.61975 19.1428 9.20001 18.625 9.20001Z" fill="#0B1C3F"/>
<path fill-rule="evenodd" clip-rule="evenodd" d="M19.1125 3.4625H19.25C22.7018 3.4625 25.5 6.26072 25.5 9.7125V20.9625C25.5 24.4143 22.7018 27.2125 19.25 27.2125H6.75C5.0924 27.2125 3.50269 26.554 2.33058 25.3819C1.15848 24.2098 0.5 22.6201 0.5 20.9625V9.7125C0.5 6.26072 3.29822 3.4625 6.75 3.4625H6.8625V3.375V1.1875C6.8625 0.669733 7.28223 0.25 7.8 0.25C8.31777 0.25 8.7375 0.669733 8.7375 1.1875V3.375V3.4625H17.2375V3.375V1.1875C17.2375 0.669733 17.6572 0.25 18.175 0.25C18.6928 0.25 19.1125 0.669733 19.1125 1.1875V3.375V3.4625ZM19.25 25.3375C21.6662 25.3375 23.625 23.3787 23.625 20.9625V9.71249C23.625 7.29624 21.6662 5.33749 19.25 5.33749H6.75C4.33375 5.33749 2.375 7.29624 2.375 9.71249V20.9625C2.375 23.3787 4.33375 25.3375 6.75 25.3375H19.25Z" fill="#0B1C3F"/>
</svg>
