<svg width="30" height="30" viewBox="0 0 30 30" fill="none" xmlns="http://www.w3.org/2000/svg">
<path fill-rule="evenodd" clip-rule="evenodd" d="M18.2004 17.95H18.2754C20.7313 16.8659 22.69 14.8983 23.7629 12.4375V17.8875C23.7729 21.3807 21.7042 24.5452 18.5004 25.9375H18.4129C17.3536 26.3861 16.2132 26.6116 15.0629 26.6C13.951 26.603 12.8499 26.382 11.8254 25.95L11.5004 25.8125C8.30355 24.4751 6.23015 21.3403 6.25039 17.875V17.65C6.27437 15.8754 6.99757 14.182 8.26289 12.9375L8.48789 12.725C10.4769 10.7769 12.1174 8.50233 13.3379 6L15.0504 2.5C15.0504 2.5 16.8254 5 18.4754 7.5C20.4877 10.4857 19.8184 14.5232 16.9504 16.7H16.8879H16.8004C16.5027 17.0747 16.535 17.6136 16.8754 17.95C17.0178 18.0702 17.2022 18.1287 17.3879 18.1125C17.6655 18.1009 17.9396 18.046 18.2004 17.95ZM17.6504 24.2H17.7379V24.1875C20.2372 23.0921 21.8582 20.6288 21.8754 17.9C21.0324 18.6419 20.0684 19.2338 19.0254 19.65L18.8629 19.7125C18.3924 19.8957 17.8928 19.9931 17.3879 20C16.7037 20.0241 16.0395 19.7666 15.5504 19.2875C14.5292 18.2782 14.4322 16.6617 15.3254 15.5375C15.4345 15.4012 15.5605 15.2794 15.7004 15.175H15.7879C17.8957 13.6027 18.3915 10.6495 16.9129 8.47501C16.3754 7.67501 15.8379 6.87501 15.3379 6.16251L15.0254 6.81251C13.7024 9.47899 11.9356 11.901 9.8004 13.975L9.5754 14.1875C8.6675 15.0835 8.14694 16.2996 8.1254 17.575V17.8125C8.09153 20.5365 9.71332 23.0087 12.2254 24.0625L12.5504 24.2C14.18 24.8919 16.0208 24.8919 17.6504 24.2Z" fill="#0B1C3F"/>
</svg>
