<svg width="26" height="26" viewBox="0 0 26 26" fill="none" xmlns="http://www.w3.org/2000/svg">
<path fill-rule="evenodd" clip-rule="evenodd" d="M16.4125 1.6131L23.3625 6.7506C24.6959 7.71971 25.4893 9.26481 25.5 10.9131V20.2131C25.425 23.2047 22.9417 25.5705 19.95 25.5006H6.05C3.05831 25.5705 0.575031 23.2047 0.5 20.2131V10.9256C0.507629 9.27015 1.3068 7.71827 2.65 6.7506L9.5875 1.6131C11.6205 0.128966 14.3795 0.128966 16.4125 1.6131ZM19.95 23.6256C21.9064 23.6959 23.5504 22.1693 23.625 20.2131V10.9131C23.6186 9.85728 23.1016 8.86987 22.2375 8.26309L15.3 3.12559C13.9299 2.12506 12.0701 2.12506 10.7 3.12559L3.7625 8.25059C2.89771 8.86809 2.38167 9.86299 2.375 10.9256V20.2131C2.45628 22.1662 4.09622 23.689 6.05 23.6256H19.95Z" fill="#D80000"/>
<path d="M18.625 17.6881H7.375C6.85723 17.6881 6.4375 18.1078 6.4375 18.6256C6.4375 19.1434 6.85723 19.5631 7.375 19.5631H18.625C19.1428 19.5631 19.5625 19.1434 19.5625 18.6256C19.5625 18.1078 19.1428 17.6881 18.625 17.6881Z" fill="#D80000"/>
</svg>
