<svg width="29" height="27" viewBox="0 0 29 27" fill="none" xmlns="http://www.w3.org/2000/svg">
<path fill-rule="evenodd" clip-rule="evenodd" d="M14.3049 24.0688C9.84622 24.0688 6.03857 23.4305 6.03857 20.874C6.03857 18.3176 9.82206 15.9577 14.3049 15.9577C18.7637 15.9577 22.5713 18.2947 22.5713 20.8512C22.5713 23.4065 18.7878 24.0688 14.3049 24.0688Z" stroke="black" stroke-width="1.5" stroke-linecap="round" stroke-linejoin="round"/>
<path fill-rule="evenodd" clip-rule="evenodd" d="M14.2963 12.4151C17.2223 12.4151 19.5938 10.2333 19.5938 7.5414C19.5938 4.84949 17.2223 2.66666 14.2963 2.66666C11.3703 2.66666 8.99759 4.84949 8.99759 7.5414C8.98774 10.2242 11.3428 12.4061 14.2589 12.4151C14.2721 12.4151 14.2842 12.4151 14.2963 12.4151Z" stroke="black" stroke-width="1.5" stroke-linecap="round" stroke-linejoin="round"/>
</svg>
